<svg width="32" height="32" viewBox="0 0 32 32" fill="none" xmlns="http://www.w3.org/2000/svg">
  <rect width="32" height="32" rx="6" fill="#1f2937"/>
  <path d="M8 24V8h6c1.333 0 2.5.333 3.5 1s1.5 1.667 1.5 3c0 .867-.267 1.6-.8 2.2s-1.2.967-2 1.1c.933.133 1.7.533 2.3 1.2s.9 1.5.9 2.5c0 1.4-.5 2.5-1.5 3.333S15.667 24 14 24H8zm3-9h2.5c.6 0 1.083-.183 1.45-.55s.55-.817.55-1.35c0-.567-.183-1.017-.55-1.35S13.6 11.2 13 11.2h-2V15zm0 6h3c.667 0 1.217-.2 1.65-.6s.65-.9.65-1.5c0-.633-.217-1.15-.65-1.55S14.667 16.8 14 16.8h-3V21z" fill="white"/>
</svg>

